<?xml version="1.0" encoding="utf-8"?>
<!-- Generator: Adobe Illustrator 25.2.1, SVG Export Plug-In . SVG Version: 6.00 Build 0)  -->
<svg version="1.1" id="Illustration" xmlns="http://www.w3.org/2000/svg" xmlns:xlink="http://www.w3.org/1999/xlink" x="0px"
	 y="0px" viewBox="0 0 1149 1531" enable-background="new 0 0 1149 1531" xml:space="preserve" width="160px">
<g>
	<g>
		<linearGradient id="SVGID_1_" gradientUnits="userSpaceOnUse" x1="796.8489" y1="4.017" x2="416.1575" y2="1663.2618">
			<stop  offset="0" style="stop-color:#09005D"/>
			<stop  offset="1" style="stop-color:#1A0F91"/>
		</linearGradient>
		<path fill="url(#SVGID_1_)" d="M1096.8,1095.2c37.7-35.6,57.4-89.3,51.6-140.8c-5.8-51.5-36.9-99.5-81.5-125.9
			c-24.5-14.5-54.4-24.4-68-49.4c-10.9-20.2-7.9-44.7-4.9-67.5c14.4-111.1,19.5-227.5-22.1-331.5
			c-61.8-154.5-231.7-258.2-397.3-242.9C409,121.9,239.2,225.6,177.3,380.1c-41.6,104-36.5,220.4-22.1,331.5c3,22.8,6,47.3-4.9,67.5
			c-13.5,25-43.5,34.9-68,49.4C37.7,854.8,6.6,902.8,0.8,954.3c-5.8,51.5,13.9,105.2,51.6,140.8c12.3,11.6,27,22.3,32.4,38.3
			c7.5,22.4-5.6,45.7-12.6,68.2c-23.6,75.7,26.3,158.6,94.5,199c63.9,37.9,139.9,47.3,214.2,54.1c32.4,9.8,65.3,19.2,99.1,18.6
			c35.8-0.6,73.2-14.3,93.8-43.6c0.4-0.5,0.7-1,1-1.5c0.3,0.5,0.7,1,1,1.5c20.6,29.3,58,42.9,93.8,43.6c33.7,0.6,66.7-8.8,99.1-18.6
			c74.3-6.8,150.3-16.2,214.2-54.1c68.2-40.4,118.1-123.4,94.5-199c-7-22.5-20.2-45.8-12.6-68.2
			C1069.9,1117.4,1084.5,1106.8,1096.8,1095.2z"/>
		<linearGradient id="SVGID_2_" gradientUnits="userSpaceOnUse" x1="578.6772" y1="779.74" x2="575.6769" y2="1526.8125">
			<stop  offset="0" style="stop-color:#FF928E"/>
			<stop  offset="1" style="stop-color:#FEB3B1"/>
		</linearGradient>
		<path fill="url(#SVGID_2_)" d="M996.1,1337.4c-97.2,2.8-224.9,50-283.1-27.8c-58.3-77.7-36.1-316.5-36.1-316.5s-71.6-7.5-108.7-6
			c-37.1-1.5-108.7,6-108.7,6s22.2,238.7-36.1,316.5c-58.3,77.7-186,30.5-283.1,27.8c-76.9-2.2-103.8,141.8-92.7,178
			c2.9,9.3,11.5,15.6,21.2,15.6h1014.7c9.7,0,18.3-6.3,21.2-15.6C1115.8,1479.2,1073,1335.2,996.1,1337.4z"/>
		<linearGradient id="SVGID_3_" gradientUnits="userSpaceOnUse" x1="570.6879" y1="1413.0708" x2="598.4741" y2="1873.531">
			<stop  offset="0" style="stop-color:#4042E2"/>
			<stop  offset="1" style="stop-color:#4F52FF"/>
		</linearGradient>
		<path fill="url(#SVGID_3_)" d="M996.1,1337.4c-50.3,1.4-108.8,14.8-161.7,16.5c-48.3,39.8-139.9,98.3-256.2,91.7
			c-128.1-7.3-219.9-62.6-259.7-91.6c-56.9,1.1-122.6-15.1-178.3-16.7c-76.9-2.2-103.8,141.8-92.7,178c2.9,9.3,11.5,15.6,21.2,15.6
			h1014.7c9.7,0,18.3-6.3,21.2-15.6C1115.8,1479.2,1073,1335.2,996.1,1337.4z"/>
		<linearGradient id="SVGID_4_" gradientUnits="userSpaceOnUse" x1="551.088" y1="168.4256" x2="587.0916" y2="993.5044">
			<stop  offset="0" style="stop-color:#FF928E"/>
			<stop  offset="1" style="stop-color:#FEB3B1"/>
		</linearGradient>
		<path fill="url(#SVGID_4_)" d="M332.2,441.1c-5.8,9.5-8.9,20.4-9.1,31.5c-1.6,74.4-6.6,380.5,19.5,440.7
			c32.4,74.7,115.5,156.2,220.2,171.1c104.7,15,232.8-128.8,247.7-197.9c7.9-36.5,7-332.3,6.6-411.1c-0.1-13.4-4.3-26.4-12.2-37.3
			c-29.5-40.6-111.4-134.5-233.1-124.6C489,320.4,401.8,325.8,332.2,441.1z"/>
		<linearGradient id="SVGID_5_" gradientUnits="userSpaceOnUse" x1="822.765" y1="156.5702" x2="858.7687" y2="981.6526">
			<stop  offset="0" style="stop-color:#FF928E"/>
			<stop  offset="1" style="stop-color:#FEB3B1"/>
		</linearGradient>
		<path fill="url(#SVGID_5_)" d="M800.8,697.5c0,0,0-134.6,74.8-59.8c74.8,74.8-74.8,179.5-74.8,179.5V697.5z"/>
		
			<linearGradient id="SVGID_6_" gradientUnits="userSpaceOnUse" x1="-716.1859" y1="56.7727" x2="-680.1822" y2="881.8552" gradientTransform="matrix(-1 0 0 1 -396.8115 0)">
			<stop  offset="0" style="stop-color:#FF928E"/>
			<stop  offset="1" style="stop-color:#FEB3B1"/>
		</linearGradient>
		<path fill="url(#SVGID_6_)" d="M337,697.5c0,0,0-134.6-74.8-59.8C187.4,712.5,337,817.2,337,817.2V697.5z"/>
		<linearGradient id="SVGID_7_" gradientUnits="userSpaceOnUse" x1="696.9523" y1="12.3255" x2="381.3478" y2="1387.8888">
			<stop  offset="0" style="stop-color:#09005D"/>
			<stop  offset="1" style="stop-color:#1A0F91"/>
		</linearGradient>
		<path fill="url(#SVGID_7_)" d="M307.1,579.9c0.2,4.6,64-44.3,174.2-64.7c134.4-24.9,181.3-98.7,211.6-98.7
			c14.9,0,37.3,9.3,34.8,74.1c-2.5,64.8,67.2,141.2,122,67.1c54.8-74.1-47.3-266.2-281.2-261.6C334.5,300.8,299.6,390.1,307.1,579.9
			z"/>
		<g>
			<linearGradient id="SVGID_8_" gradientUnits="userSpaceOnUse" x1="428.5862" y1="245.461" x2="428.5862" y2="464.4828">
				<stop  offset="0" style="stop-color:#09005D"/>
				<stop  offset="1" style="stop-color:#1A0F91"/>
			</linearGradient>
			<path fill="url(#SVGID_8_)" d="M353.9,686.1c12.3-5.3,21.6-17.6,34.3-22.9c15.1-6.3,31-6.2,46.1-1.3
				c26.2,8.5,53.5,29.6,81.6,16.2c1-0.5,0.8-2.5-0.4-2.4c-36.2,1.7-63.1-29.1-98.2-31.6c-13.3-0.9-29-1.2-41.3,5
				c-10.9,5.5-35.4,22.9-35.4,22.9S351.1,687.3,353.9,686.1z"/>
			<linearGradient id="SVGID_9_" gradientUnits="userSpaceOnUse" x1="847.8102" y1="241.5412" x2="787.8041" y2="430.5603">
				<stop  offset="0" style="stop-color:#09005D"/>
				<stop  offset="1" style="stop-color:#1A0F91"/>
			</linearGradient>
			<path fill="url(#SVGID_9_)" d="M785.1,686.1c-12.3-5.3-21.6-17.6-34.3-22.9c-15.1-6.3-31-6.2-46.1-1.3
				c-26.2,8.5-53.5,29.6-81.6,16.2c-1-0.5-0.8-2.5,0.4-2.4c36.2,1.7,63.1-29.1,98.2-31.6c13.3-0.9,29-1.2,41.3,5
				c10.9,5.5,35.4,22.9,35.4,22.9S787.9,687.3,785.1,686.1z"/>
		</g>
		<linearGradient id="SVGID_10_" gradientUnits="userSpaceOnUse" x1="661.4147" y1="214.2523" x2="686.9132" y2="407.7426">
			<stop  offset="0" style="stop-color:#09005D"/>
			<stop  offset="1" style="stop-color:#1A0F91"/>
		</linearGradient>
		<path fill="url(#SVGID_10_)" d="M620.7,582.4L620.7,582.4c0,6.6,6.4,11.3,12.7,9.2c30.2-10.1,108.5-30.4,167.7,4.6
			c0,0-33.1-76.1-174.2-22.8C623.1,574.8,620.7,578.4,620.7,582.4z"/>
		
			<linearGradient id="SVGID_11_" gradientUnits="userSpaceOnUse" x1="-928.2517" y1="-80.4607" x2="-902.7532" y2="113.0294" gradientTransform="matrix(-1 0 0 1 -411 0)">
			<stop  offset="0" style="stop-color:#09005D"/>
			<stop  offset="1" style="stop-color:#1A0F91"/>
		</linearGradient>
		<path fill="url(#SVGID_11_)" d="M519.1,582.4L519.1,582.4c0,6.6-6.4,11.3-12.7,9.2c-30.2-10.1-108.5-30.4-167.7,4.6
			c0,0,33.1-76.1,174.2-22.8C516.7,574.8,519.1,578.4,519.1,582.4z"/>
		<g>
			<linearGradient id="SVGID_12_" gradientUnits="userSpaceOnUse" x1="460.3022" y1="936.9044" x2="695.8471" y2="916.8642">
				<stop  offset="0" style="stop-color:#E1473D"/>
				<stop  offset="1" style="stop-color:#E9605A"/>
			</linearGradient>
			<path fill="url(#SVGID_12_)" d="M694.2,897.6c0,0-45.7-21.2-77.2-18.6c-31.4,2.7-41.4,10.6-41.4,10.6s-10-8-41.4-10.6
				c-31.4-2.7-77.2,18.6-77.2,18.6c23.9,60.3,80,82.2,118.6,81.6C614.2,979.8,670.3,957.9,694.2,897.6z"/>
			<path fill="#FFFFFF" d="M664.4,912.2c0,0-39.8,27.8-88.8,27.8s-88.8-27.8-88.8-27.8s39.8-6.6,88.8-6.6S664.4,912.2,664.4,912.2z"
				/>
		</g>
		<path fill="#7D97F4" d="M223.8,962.5c-3.1,0-6.2-0.3-9.3-1c-1.1-0.2-1.8-1.3-1.5-2.4c0.2-1.1,1.3-1.8,2.4-1.5
			c20.3,4.3,48.3-8.9,58.3-37.7c7.4-21.3,4.4-47.8-8.3-74.8c-7.3-15.5-17.1-30.2-26.5-44.3c-4.9-7.3-9.9-14.9-14.6-22.6
			c-22.7-37.1-35.3-73.9-37.5-109.3c-2.6-41.7,10.1-81.3,34.8-108.9c28.2-31.4,69.6-46,106.5-56.1c26.8-7.3,54.3-13.3,81-19.1
			c33.2-7.2,67.4-14.6,100.4-24.7c70.8-21.7,122.2-52.4,157-93.9c0.7-0.8,2-0.9,2.8-0.2c0.8,0.7,0.9,2,0.2,2.8
			C634,410.9,582,442,510.4,464c-33.1,10.1-67.5,17.6-100.7,24.8c-26.6,5.8-54.1,11.7-80.8,19c-36.3,9.9-77.1,24.2-104.6,54.9
			c-24,26.7-36.3,65.4-33.8,106c2.2,34.7,14.6,70.9,36.9,107.5c4.6,7.6,9.7,15.1,14.5,22.4c9.5,14.3,19.3,29,26.8,44.8
			c13.2,27.9,16.2,55.6,8.5,77.8C269.9,942.6,248.2,962.5,223.8,962.5z"/>
		<path fill="#7D97F4" d="M205.1,517.9c0,0-0.1,0-0.1,0c-0.5-0.1-0.9-0.6-0.9-1.1c2.4-21.3,15.8-41.8,36.7-56.3
			c20.3-14.1,44.6-20.8,63.6-25.1c35.1-7.9,71.6-11.8,106.8-15.4c9-0.9,17.9-1.9,26.9-2.9c43.2-4.8,89-11.6,131.3-28
			c32.3-12.6,76.8-36.7,104.9-80.3c0.3-0.5,0.9-0.6,1.4-0.3c0.5,0.3,0.6,0.9,0.3,1.4c-28.4,44-73.2,68.4-105.8,81
			c-42.5,16.5-88.5,23.3-131.8,28.1c-8.9,1-17.9,1.9-26.9,2.9c-35.2,3.7-71.6,7.5-106.6,15.4c-18.8,4.2-42.9,10.9-62.9,24.8
			c-20.4,14.2-33.5,34.2-35.8,54.9C206,517.5,205.5,517.9,205.1,517.9z"/>
		<path fill="#7D97F4" d="M930.2,1293.7c-0.8,0-1.6-0.5-1.9-1.4c-0.3-1,0.2-2.2,1.3-2.5c13.5-4.4,20.4-20,20.2-33.1
			c-0.2-14.6-7.1-28.6-13.6-40.5l-2.2-4c-6.4-11.6-12.9-23.6-15.4-36.8c-7.5-39.5,22.8-73.1,36.2-85.7c11-10.3,23.3-19.5,35.2-28.3
			c13.2-9.8,26.8-19.9,38.6-31.6c26.2-26.1,37.5-57.3,30.1-83.4c-7-24.8-27.8-40.5-49.9-57.1c-10.2-7.7-20.8-15.6-29.8-24.5
			c-26.5-26.2-42.4-65.7-43.8-108.3c-1.1-35.7,7-73.5,24.9-115.5c0.4-1,1.6-1.5,2.6-1c1,0.4,1.5,1.6,1,2.6
			c-17.6,41.4-25.7,78.7-24.5,113.8c1.3,41.6,16.9,80.1,42.6,105.6c8.8,8.7,19.2,16.6,29.3,24.2c21.6,16.3,44,33.1,51.3,59.2
			c7.8,27.5-3.9,60.2-31.1,87.3c-12,11.9-25.7,22.1-39,32c-11.8,8.8-24,17.8-34.8,28c-12.9,12.1-42.2,44.5-35.1,82.1
			c2.4,12.6,8.8,24.3,15,35.6l2.2,4c6.7,12.3,13.8,26.7,14.1,42.3c0.2,14.6-7.6,31.9-23,36.9
			C930.7,1293.6,930.4,1293.7,930.2,1293.7z"/>
	</g>
</g>
</svg>
