<?xml version="1.0" encoding="utf-8"?>
<!-- Generator: Adobe Illustrator 25.2.1, SVG Export Plug-In . SVG Version: 6.00 Build 0)  -->
<svg version="1.1" id="Illustration" xmlns="http://www.w3.org/2000/svg" xmlns:xlink="http://www.w3.org/1999/xlink" x="0px"
	 y="0px" viewBox="0 0 1726 1129" enable-background="new 0 0 1726 1129" xml:space="preserve">
<g>
	<linearGradient id="SVGID_1_" gradientUnits="userSpaceOnUse" x1="1593.0626" y1="1491.4457" x2="557.9365" y2="205.8839">
		<stop  offset="0" style="stop-color:#DAE3FE"/>
		<stop  offset="1" style="stop-color:#E9EFFD"/>
	</linearGradient>
	<path fill="url(#SVGID_1_)" d="M1353.7,951.4c-26.3,23.2-51.1,38.2-70.7,50c-230.8,138.9-503.9,98.4-561.9,88.5
		c-85.7-14.6-251.4-42.8-371.1-161c-181.2-178.8-153-460.4-12.4-646.3c25.7-34,161.5-222.8,437.5-253
		c167-18.3,361.8,18.6,502.8,117.7C1573.8,355.3,1552.8,775.6,1353.7,951.4z"/>
</g>
<g>
	<g>
		<path fill="#91B3FA" d="M460.7,986.1c0,0-14-97.1,95.2-104.5c109.2-7.5,642.2,11.2,642.2,11.2s-22.4,108.3,0,154.9
			c-102.7-0.9-696.3,0-696.3,0S457.2,1026.3,460.7,986.1z"/>
		<linearGradient id="SVGID_2_" gradientUnits="userSpaceOnUse" x1="808.2626" y1="627.7856" x2="848.7444" y2="1203.0514">
			<stop  offset="0" style="stop-color:#09005D"/>
			<stop  offset="1" style="stop-color:#1A0F91"/>
		</linearGradient>
		<path fill="url(#SVGID_2_)" d="M1203.2,1035.9c-87,0-654.9,0-667.5,0c-13.6,0-65.5,3.6-64.3-54.9c0.6-28.1,15.5-45.3,30.8-56.2
			c14.2-10.2,31.2-15,48.6-15c89.1,0,545.5,0,607.9,0c69.2,0,48.8-59.8,48.8-59.8l-0.6,0.1l-650.2-0.9c0,0-96.4,57.5-106.7,116.1
			c-2.4,13.9-2,26.7,0,37.6c5.9,31.8,33.5,55.2,65.6,55.2h687.6c6.1,0,11.1-4.9,11.1-11.1
			C1214.3,1040.7,1209.3,1035.9,1203.2,1035.9z"/>
		<linearGradient id="SVGID_3_" gradientUnits="userSpaceOnUse" x1="794.4199" y1="-684.894" x2="936.3209" y2="1331.5895">
			<stop  offset="0" style="stop-color:#09005D"/>
			<stop  offset="1" style="stop-color:#1A0F91"/>
		</linearGradient>
		<path fill="url(#SVGID_3_)" d="M1168.8,46.5H544v847.7h624.8c23.9,0,41.4-20.8,41.4-44.7v-761
			C1210.2,64.6,1192.7,46.5,1168.8,46.5z"/>
		<linearGradient id="SVGID_4_" gradientUnits="userSpaceOnUse" x1="450.0475" y1="505.1354" x2="543.7858" y2="505.1354">
			<stop  offset="0" style="stop-color:#09005D"/>
			<stop  offset="1" style="stop-color:#1A0F91"/>
		</linearGradient>
		<path fill="url(#SVGID_4_)" d="M543.8,45.2c0,0-100.8,20.1-93.3,97.8c7.5,77.7-0.4,822.1-0.4,822.1s30.3-72.3,93.7-72.3
			C543.8,732.2,543.8,45.2,543.8,45.2z"/>
		<linearGradient id="SVGID_5_" gradientUnits="userSpaceOnUse" x1="639.2011" y1="922.9918" x2="1130.5579" y2="922.9918">
			<stop  offset="0" style="stop-color:#DAE3FE"/>
			<stop  offset="1" style="stop-color:#E9EFFD"/>
		</linearGradient>
		<path fill="url(#SVGID_5_)" d="M1130.6,923.8c0,0.8-0.6,1.4-1.4,1.4H640.6c-0.8,0-1.4-0.6-1.4-1.4v-1.6c0-0.8,0.6-1.4,1.4-1.4
			h488.6c0.8,0,1.4,0.6,1.4,1.4V923.8z"/>
		<linearGradient id="SVGID_6_" gradientUnits="userSpaceOnUse" x1="568.3749" y1="971.5578" x2="1141.6245" y2="971.5578">
			<stop  offset="0" style="stop-color:#DAE3FE"/>
			<stop  offset="1" style="stop-color:#E9EFFD"/>
		</linearGradient>
		<path fill="url(#SVGID_6_)" d="M1141.6,971.7c0,0.8-1,2.2-1.9,2.2H571.5c-0.9,0-3.1-1.5-3.1-2.2v-2.1c0-0.8,2.2-0.1,3.1-0.1h568.2
			c0.9,0,1.9-0.6,1.9,0.1V971.7z"/>
		<linearGradient id="SVGID_7_" gradientUnits="userSpaceOnUse" x1="789.7068" y1="1014.8445" x2="1152.691" y2="1014.8445">
			<stop  offset="0" style="stop-color:#DAE3FE"/>
			<stop  offset="1" style="stop-color:#E9EFFD"/>
		</linearGradient>
		<path fill="url(#SVGID_7_)" d="M1152.7,1015.4c0,1.5-1.3,2.8-2.8,2.8H792.5c-1.5,0-2.8-1.3-2.8-2.8v-1c0-1.5,1.3-2.8,2.8-2.8
			h357.4c1.5,0,2.8,1.3,2.8,2.8V1015.4z"/>
		<g>
			<g>
				<path fill="#91B3FA" d="M566.2,802.2c-1.2,0-2.2-1-2.2-2.2V487.9c0-1.2,1-2.2,2.2-2.2c1.2,0,2.2,1,2.2,2.2v312.1
					C568.4,801.2,567.4,802.2,566.2,802.2z"/>
			</g>
			<g>
				<path fill="#91B3FA" d="M566.2,441.4c-1.2,0-2.2-1-2.2-2.2V288.7c0-1.2,1-2.2,2.2-2.2c1.2,0,2.2,1,2.2,2.2v150.5
					C568.4,440.4,567.4,441.4,566.2,441.4z"/>
			</g>
			<g>
				<path fill="#91B3FA" d="M566.2,158.1c-1.2,0-2.2-1-2.2-2.2V71.8c0-1.2,1-2.2,2.2-2.2c1.2,0,2.2,1,2.2,2.2v84.1
					C568.4,157.1,567.4,158.1,566.2,158.1z"/>
			</g>
		</g>
		<g>
			<g>
				<g>
					<path fill="#91B3FA" d="M1136,816.5H654c-8.1,0-14.2-6.4-14.2-14.2V139.5c0-7.8,6.1-14.2,14.2-14.2h482
						c8.1,0,14.8,6.4,14.8,14.2v662.8C1150.8,810.1,1144.1,816.5,1136,816.5z M654,136.6c-1.7,0-2.9,1.3-2.9,2.9v662.8
						c0,1.6,1.3,2.9,2.9,2.9h482c1.7,0,3.4-1.3,3.4-2.9V139.5c0-1.6-1.8-2.9-3.4-2.9H654z"/>
				</g>
			</g>
			<g>
				<g>
					<path fill="#91B3FA" d="M1098.4,779.1H690.4c-8.1,0-14.4-6.4-14.4-14.2V178c0-7.8,6.3-14.2,14.4-14.2h407.9
						c8.1,0,15,6.4,15,14.2v586.8C1113.4,772.7,1106.5,779.1,1098.4,779.1z M690.4,175.1c-1.7,0-3.1,1.3-3.1,2.9v586.8
						c0,1.6,1.5,2.9,3.1,2.9h407.9c1.7,0,2.5-1.3,2.5-2.9V178c0-1.6-0.9-2.9-2.5-2.9H690.4z"/>
				</g>
			</g>
		</g>
	</g>
	<g>
		<linearGradient id="SVGID_8_" gradientUnits="userSpaceOnUse" x1="1288.8297" y1="872.9416" x2="1287.1714" y2="728.6633">
			<stop  offset="0" style="stop-color:#FF928E"/>
			<stop  offset="1" style="stop-color:#FEB3B1"/>
		</linearGradient>
		<path fill="url(#SVGID_8_)" d="M1250.8,804.2c0,0,6.6,26.7,38.8,26.1c32.8-0.6,35.7-28.2,35.7-28.2l-21.4-4.6l-1.8-23.9l-32.2,2.4
			l-0.6,22.7L1250.8,804.2z"/>
		<linearGradient id="SVGID_9_" gradientUnits="userSpaceOnUse" x1="1227.9733" y1="757.4291" x2="1446.6798" y2="1285.7333">
			<stop  offset="0" style="stop-color:#E1473D"/>
			<stop  offset="1" style="stop-color:#E9605A"/>
		</linearGradient>
		<path fill="url(#SVGID_9_)" d="M1387.2,871.4L1387.2,871.4c-6.2-22.8-16.4-45.8-33.8-58.1c-5.7-4-15.4-7.9-27.3-11
			c-0.3-0.1-0.6-0.2-0.9-0.2c-0.7-0.2-1.5-0.3-2.2-0.4l-19.2-4.1l-14.9,7.4l-19.6-6.2c0,0-19.6,3.8-20.1,4l0,0
			c-8.1,2.4-15.7,6.1-22.7,10.9c-18.5,12.7-30.5,45.7-31.8,56c-0.1,0.2-26.2,72.7,23.2,113.3l-0.3,13l74.9,37.6l65.6-33.6l0.3-11.4
			C1406.2,951.3,1387.2,871.4,1387.2,871.4z"/>
		<linearGradient id="SVGID_10_" gradientUnits="userSpaceOnUse" x1="1286.7451" y1="920.3917" x2="1293.4833" y2="756.6241">
			<stop  offset="0" style="stop-color:#FE7062"/>
			<stop  offset="1" style="stop-color:#FF928E"/>
		</linearGradient>
		<rect x="1284.5" y="806.3" fill="url(#SVGID_10_)" width="9.1" height="117.8"/>
		<linearGradient id="SVGID_11_" gradientUnits="userSpaceOnUse" x1="1289.2943" y1="951.6836" x2="1290.3516" y2="1024.6337">
			<stop  offset="0" style="stop-color:#E1473D"/>
			<stop  offset="1" style="stop-color:#E9605A"/>
		</linearGradient>
		<path fill="url(#SVGID_11_)" d="M1307.8,791.3c-0.1-0.3-0.3-0.6-0.6-0.7c-0.3-0.1-0.7-0.2-1,0l-15.8,6c-0.3,0.1-0.5,0.3-0.6,0.6
			l-1.3,4.1l-0.4-3.9c0-0.4-0.3-0.7-0.7-0.8L1266,790c-0.4-0.1-0.7,0-1.1,0.2c-0.3,0.2-0.5,0.6-0.5,0.9l-0.4,7.4
			c0,0,15.2,10.4,24,10.7c8.8,0.3,22-10.6,22-10.6L1307.8,791.3z"/>
		
			<linearGradient id="SVGID_12_" gradientUnits="userSpaceOnUse" x1="1454.6771" y1="-117.3229" x2="1395.5815" y2="4.4864" gradientTransform="matrix(0.987 0.1608 -0.1608 0.987 -79.1823 494.983)">
			<stop  offset="0" style="stop-color:#09005D"/>
			<stop  offset="1" style="stop-color:#1A0F91"/>
		</linearGradient>
		<path fill="url(#SVGID_12_)" d="M1261.9,715.6c-0.3,0.6-19.3,14.6-19.3,14.6s4.2,30,21.2,41.9c18.7,13,45.2-10.7,45.2-10.7
			s21.1,5,32.3-38.8c2.6-10.1-12.3-10.9-30.2-9.1C1288.1,715.8,1261.9,715.6,1261.9,715.6z"/>
		
			<linearGradient id="SVGID_13_" gradientUnits="userSpaceOnUse" x1="1394.0841" y1="79.2642" x2="1399.2498" y2="-46.2829" gradientTransform="matrix(0.987 0.1608 -0.1608 0.987 -79.1823 494.983)">
			<stop  offset="0" style="stop-color:#FF928E"/>
			<stop  offset="1" style="stop-color:#FEB3B1"/>
		</linearGradient>
		<path fill="url(#SVGID_13_)" d="M1274.4,710.6c0,0-36.9,71.5,6.9,88.8c30.9,12.2,50.2-47.5,44.5-63.6c-8.9-25-14.8-22-14.8-22
			L1274.4,710.6z"/>
		
			<linearGradient id="SVGID_14_" gradientUnits="userSpaceOnUse" x1="1455.1099" y1="-134.4659" x2="1388.6146" y2="2.5956" gradientTransform="matrix(0.987 0.1608 -0.1608 0.987 -79.1823 494.983)">
			<stop  offset="0" style="stop-color:#09005D"/>
			<stop  offset="1" style="stop-color:#1A0F91"/>
		</linearGradient>
		<path fill="url(#SVGID_14_)" d="M1334.6,704.1c18.2,5,2.6,44.5-24.8,35.2c-27.4-9.3-38.2-9.2-42.5-1.7
			c-4.3,7.5-5.2,34.3-14.5,21.1c-10.2-14.5-15.8-43.6-3.4-53c11.1-8.4,13.8-21.4,27.1-20.9c17.7,0.6,31.5-7.3,39.5-1.6
			C1325.3,689.7,1321.2,700.4,1334.6,704.1z"/>
		
			<linearGradient id="SVGID_15_" gradientUnits="userSpaceOnUse" x1="976.3813" y1="1308.9164" x2="984.4763" y2="1112.1741" gradientTransform="matrix(0.9911 -0.1329 0.1329 0.9911 125.6285 -353.7732)">
			<stop  offset="0" style="stop-color:#FF928E"/>
			<stop  offset="1" style="stop-color:#FEB3B1"/>
		</linearGradient>
		<path fill="url(#SVGID_15_)" d="M1265.6,743.8c0,0-7.9-8.5-9.1,1.7c-1.3,10.2,2.8,23.4,7.5,16.1
			C1268.7,754.4,1265.6,743.8,1265.6,743.8z"/>
		<g>
			<linearGradient id="SVGID_16_" gradientUnits="userSpaceOnUse" x1="1194.7441" y1="896.6279" x2="1376.2365" y2="896.6279">
				<stop  offset="0" style="stop-color:#DAE3FE"/>
				<stop  offset="1" style="stop-color:#E9EFFD"/>
			</linearGradient>
			<path fill="url(#SVGID_16_)" d="M1374,877.8c-1.1-0.8-2.7-1.1-4-0.7l-84,24.1l-83.1-24.1c-1.3-0.4-4.1-0.1-5.1,0.7
				c-1.1,0.8-3.1,2.1-3.1,3.4v4.3l90.7,30.7l90.7-25.7v-9.3C1376.2,879.9,1375.1,878.6,1374,877.8z"/>
			<g>
				<linearGradient id="SVGID_17_" gradientUnits="userSpaceOnUse" x1="1241.6429" y1="861.3499" x2="1233.8597" y2="1176.576">
					<stop  offset="0" style="stop-color:#09005D"/>
					<stop  offset="1" style="stop-color:#1A0F91"/>
				</linearGradient>
				<path fill="url(#SVGID_17_)" d="M1284.4,901.2l-86.6-20.6c-1.3-0.3-2.6,0-3.6,0.8c-1,0.8-1.6,2.1-1.6,3.4l2,96.4
					c0,2,1.4,3.7,3.4,4.1l88.6,18.2L1284.4,901.2z"/>
				
					<linearGradient id="SVGID_18_" gradientUnits="userSpaceOnUse" x1="644.8585" y1="861.3499" x2="637.0753" y2="1176.576" gradientTransform="matrix(-1 0 0 1 1978.7338 0)">
					<stop  offset="0" style="stop-color:#09005D"/>
					<stop  offset="1" style="stop-color:#1A0F91"/>
				</linearGradient>
				<path fill="url(#SVGID_18_)" d="M1291.1,901.2l86.6-20.6c1.3-0.3,2.6,0,3.6,0.8c1,0.8,1.6,2.1,1.6,3.4l-2,96.4
					c0,2-1.4,3.7-3.4,4.1l-88.6,18.2L1291.1,901.2z"/>
				<linearGradient id="SVGID_19_" gradientUnits="userSpaceOnUse" x1="1234.1375" y1="1107.276" x2="1288.0598" y2="938.9732">
					<stop  offset="0" style="stop-color:#09005D"/>
					<stop  offset="1" style="stop-color:#1A0F91"/>
				</linearGradient>
				<path fill="url(#SVGID_19_)" d="M1294.3,901.6c0-2.3-1.9-4.2-4.2-4.2h-11.5c-2.3,0-4.2,1.9-4.2,4.2v97.8c0,2.3,1.9,4.2,4.2,4.2
					h11.5c2.3,0,4.2-1.9,4.2-4.2V901.6z"/>
			</g>
			<linearGradient id="SVGID_20_" gradientUnits="userSpaceOnUse" x1="1203.1639" y1="939.7415" x2="1191.6687" y2="910.4288">
				<stop  offset="0" style="stop-color:#FF928E"/>
				<stop  offset="1" style="stop-color:#FEB3B1"/>
			</linearGradient>
			<path fill="url(#SVGID_20_)" d="M1211.1,917.2c-1.9-5.1-12.2,0.5-15.7,2.6c-0.3,0.2-0.6,0.2-0.8,0c-0.3-0.1-0.5-0.4-0.5-0.7
				l-1-7.5l-3.3,7.2c-5.2,7.7-1,26.8-1,26.8c1.3,8.3,11.1,5.7,18.3,3.2C1214.5,946.3,1213.5,923.3,1211.1,917.2z"/>
			
				<linearGradient id="SVGID_21_" gradientUnits="userSpaceOnUse" x1="559.7181" y1="939.7415" x2="548.2229" y2="910.4288" gradientTransform="matrix(-1 0 0 1 1932.077 0)">
				<stop  offset="0" style="stop-color:#FF928E"/>
				<stop  offset="1" style="stop-color:#FEB3B1"/>
			</linearGradient>
			<path fill="url(#SVGID_21_)" d="M1364.4,917.2c1.9-5.1,12.2,0.5,15.7,2.6c0.3,0.2,0.6,0.2,0.8,0c0.3-0.1,0.5-0.4,0.5-0.7l1-7.5
				l3.3,7.2c5.2,7.7,1,26.8,1,26.8c-1.3,8.3-11.1,5.7-18.3,3.2C1361,946.3,1362.1,923.3,1364.4,917.2z"/>
		</g>
		<g>
			
				<linearGradient id="SVGID_22_" gradientUnits="userSpaceOnUse" x1="1372.4709" y1="1010.1375" x2="1440.5759" y2="1010.1375" gradientTransform="matrix(1 7.700000e-03 -7.700000e-03 1 0.2462 24.1595)">
				<stop  offset="0" style="stop-color:#4042E2"/>
				<stop  offset="1" style="stop-color:#4F52FF"/>
			</linearGradient>
			<path fill="url(#SVGID_22_)" d="M1423.5,1031.4c-16.5-3.8-54.5-1.7-54.5-1.7l-1.5,4.2l-2.6,20.8c0,0,36.2,6.5,54.1,6.5
				c1.8,0,3.5-0.3,5-0.7c0.5-0.5,1.1-1,1.6-1.5C1433.1,1050.6,1430.9,1038.5,1423.5,1031.4z"/>
			<linearGradient id="SVGID_23_" gradientUnits="userSpaceOnUse" x1="1409.8909" y1="922.0688" x2="1338.0013" y2="1116.7893">
				<stop  offset="0" style="stop-color:#FF928E"/>
				<stop  offset="1" style="stop-color:#FEB3B1"/>
			</linearGradient>
			<path fill="url(#SVGID_23_)" d="M1358,1028.5l6.4,0.3c3.5,0.1,6.7,1.8,9,4.7c2.3,2.8,3.5,6.6,3.3,10.4c-0.2,3.1-1.4,5.9-3.5,7.9
				c-2.1,2-4.8,3.1-7.5,2.9l-9.9-0.7L1358,1028.5z"/>
		</g>
		<g>
			
				<linearGradient id="SVGID_24_" gradientUnits="userSpaceOnUse" x1="-7966.2632" y1="955.5551" x2="-7898.1294" y2="955.5551" gradientTransform="matrix(-0.9998 -2.000000e-02 -2.000000e-02 0.9998 -6745.9053 -70.1606)">
				<stop  offset="0" style="stop-color:#4042E2"/>
				<stop  offset="1" style="stop-color:#4F52FF"/>
			</linearGradient>
			<path fill="url(#SVGID_24_)" d="M1141.4,1029.4c16.5-3.3,54.5-0.1,54.5-0.1l1.4,4.2l2,20.9c0,0-36.4,5.4-54.2,4.9
				c-1.8-0.1-3.5-0.4-5-0.9c-0.5-0.5-1.1-1-1.5-1.6C1131.3,1048.3,1133.8,1036.3,1141.4,1029.4z"/>
			<linearGradient id="SVGID_25_" gradientUnits="userSpaceOnUse" x1="1265.8595" y1="863.3895" x2="1193.9323" y2="1058.2125">
				<stop  offset="0" style="stop-color:#FF928E"/>
				<stop  offset="1" style="stop-color:#FEB3B1"/>
			</linearGradient>
			<path fill="url(#SVGID_25_)" d="M1206.9,1028.5l-6.4,0.1c-3.5,0-6.8,1.6-9.2,4.4c-2.4,2.8-3.7,6.5-3.6,10.3c0.1,3.1,1.3,6,3.3,8
				c2,2.1,4.7,3.2,7.5,3.1l9.9-0.4L1206.9,1028.5z"/>
		</g>
		<linearGradient id="SVGID_26_" gradientUnits="userSpaceOnUse" x1="1387.2405" y1="963.5155" x2="1200.1077" y2="1091.4423">
			<stop  offset="0" style="stop-color:#4042E2"/>
			<stop  offset="1" style="stop-color:#4F52FF"/>
		</linearGradient>
		<path fill="url(#SVGID_26_)" d="M1428.1,966.1c-7.5-17.2-25.7-20-41.3-11.9c-0.3,0.4-98.7,50.8-185.5,72.9c2.5,8,3.8,16.4,4,24.8
			c0.1,1.9,0,3.7-0.1,5.5c66.5-3.4,138.8-25.6,200.8-45.1C1425.4,1006,1436.3,985.2,1428.1,966.1z"/>
		<linearGradient id="SVGID_27_" gradientUnits="userSpaceOnUse" x1="1400.7144" y1="766.9797" x2="1323.5356" y2="894.9064">
			<stop  offset="0" style="stop-color:#4042E2"/>
			<stop  offset="1" style="stop-color:#4F52FF"/>
		</linearGradient>
		<path fill="url(#SVGID_27_)" d="M1358.5,1053.2c-0.3-9.6,1.6-18.5,5.6-26.8c0.1-0.4,0.3-0.7,0.4-1.1c-5-1.5-11.4-3.6-19.8-6.5
			c-61.6-21.1-108.6-42.4-153.5-66.9c-17.4-9.5-37.2-3.1-42.8,17.5c-5,18.4,6,34.1,22.6,39.7c49.7,16.5,23.8,11.9,40,17.2
			c43.6,13.5,97.8,25.7,147.6,29.1C1358.6,1054.6,1358.5,1053.9,1358.5,1053.2z"/>
	</g>
</g>
</svg>
